<?xml version="1.0"?>
<svg role="img" aria-label="California county map colored by Medi-Cal participation rate" xmlns="http://www.w3.org/2000/svg" version="1.2" baseProfile="tiny" width="800" height="947" viewBox="0 0 800 947" stroke-linecap="round" stroke-linejoin="round">
<g id="ca-counties">
<path d="M 151.41 413.87 210.75 423.06 216.93 456.58 216.85 456.52 180.99 458.66 180.93 458.64 180.71 458.41 180.41 458.55 180.46 458.06 151.41 413.87 Z" id="county-alameda" data-county="Alameda"/>
<path d="M 327.76 335.86 340.82 312.9 365.66 334.75 361.63 373.23 361.62 373.25 331.83 362.68 327.72 361.33 327.74 343.62 327.76 335.86 Z" id="county-alpine" data-county="Alpine"/>
<path d="M 253.2 355.27 253.2 354.8 327.76 335.86 327.74 343.62 327.73 355.08 325.56 355.66 323.55 356.46 317.33 355.94 306.99 359.26 300.34 358.64 255.4 383 253.01 375.52 253.2 355.27 Z" id="county-amador" data-county="Amador"/>
<path d="M 188.3 274.59 186.06 274.51 187.71 266.66 187.67 266.46 176.52 225.24 176.31 224.85 223.73 190.75 250.59 246.32 208.01 275.75 207.94 275.71 188.3 274.59 Z" id="county-butte" data-county="Butte"/>
<path d="M 261.26 398.46 259.7 396.7 255.4 383 300.34 358.64 306.99 359.26 317.33 355.94 323.55 356.46 325.56 355.66 327.73 355.08 327.72 361.33 331.83 362.68 281.99 422.48 281.79 422.3 261.26 398.46 Z" id="county-calaveras" data-county="Calaveras"/>
<path d="M 187.63 266.58 187.71 266.66 186.06 274.51 186.08 274.53 190.95 312.4 151.79 311.57 118.61 264.97 123.59 265.08 187.63 266.58 Z" id="county-colusa" data-county="Colusa"/>
<path d="M 209.06 406.24 210.75 423.06 151.41 413.87 209.06 406.24 Z" id="county-contra-costa" data-county="Contra Costa"/>
<path d="M 71.79 2.86 58.75 63.9 52.01 63.74 28.83 54.46 20.23 1 71.79 2.86 Z" id="county-del-norte" data-county="Del Norte"/>
<path d="M 331.83 362.68 361.62 373.25 361.55 373.42 391.03 431.62 387.88 427.85 387.83 427.74 370.06 415.44 331.27 424.6 306.16 433.14 305.93 438.56 302.88 437.2 303.77 440.45 302.78 442.29 301.8 441.32 289.02 429.05 281.99 422.48 331.83 362.68 Z" id="county-tuolumne" data-county="Tuolumne"/>
<path d="M 333.2 299.54 340.82 312.9 327.76 335.86 253.2 354.8 252.89 353.87 244.65 334.44 244.59 334.41 274.64 305.26 333.2 299.54 Z" id="county-el-dorado" data-county="El Dorado"/>
<path d="M 389.91 467.91 402.2 455.36 410.64 446.73 430.31 458.63 430.38 458.88 464.33 529.7 464.37 529.76 414.69 530.77 368.14 555.75 362.58 561.04 307.94 614.25 281.12 594.12 282.94 584.65 278.56 579.86 278.75 578.24 278.86 578.22 261.31 532.37 259.98 530.97 289.27 501.91 290.28 500.92 290.64 501.38 289.97 502.6 292.48 504.27 294.85 508.26 297.49 514.23 296.99 519.04 303.82 526.83 347.48 520.56 389.91 467.91 Z" id="county-fresno" data-county="Fresno"/>
<path d="M 108.13 223.3 110.12 223.33 142.58 224.16 150.55 224.41 176.45 225.15 176.52 225.24 187.67 266.46 187.63 266.58 123.59 265.08 122.16 265.04 111.48 245.12 111.64 242.07 108.13 223.3 Z" id="county-glenn" data-county="Glenn"/>
<path d="M 64.25 151.92 63.31 176.78 63.32 177.53 62.38 201.44 49.96 200.98 45.4 200.76 25.81 200.04 1 173.12 28.83 54.46 52.01 63.74 61.22 63.97 76.95 84.67 77 84.69 64.25 151.92 Z" id="county-humboldt" data-county="Humboldt"/>
<path d="M 464.68 530.01 464.33 529.7 430.38 458.88 430.34 458.72 504.9 457.2 685.24 615.97 524.85 622.84 494.53 624.35 464.68 530.01 Z" id="county-inyo" data-county="Inyo"/>
<path d="M 151.79 311.57 147.59 317.18 147.38 317.43 128.8 336.54 114.22 317.93 93.87 295.19 111.4 246.61 111.48 245.12 122.16 265.04 118.61 264.97 151.79 311.57 Z" id="county-lake" data-county="Lake"/>
<path d="M 533.92 862.44 540.82 850.97 540.8 850.47 552.92 850.15 552.4 851.6 563.35 857.06 657.8 854.4 659.72 854.32 661.26 934.46 575.86 945.88 557.22 888.62 533.92 862.44 Z" id="county-san-diego" data-county="San Diego"/>
<path d="M 144.61 432.54 135.97 432.33 135.24 425.04 142.96 422.45 144.61 432.54 Z" id="county-san-francisco" data-county="San Francisco"/>
<path d="M 322.09 235.79 333.31 234.33 333.1 261.94 282.89 253.7 254.75 266.68 254.57 266.85 255.81 242.17 322.09 235.79 Z" id="county-sierra" data-county="Sierra"/>
<path d="M 225.72 7.23 224.93 11.94 225.28 29.19 224.77 63.68 224.93 63.72 224.56 88.12 215.85 87.94 145.44 86.56 145.4 86.36 77.05 84.68 76.95 84.67 61.22 63.97 58.75 63.9 71.79 2.86 225.72 7.23 Z" id="county-siskiyou" data-county="Siskiyou"/>
<path d="M 208.72 373.63 208.48 373.8 199.5 393.53 145.3 389.21 144.66 387.96 144.94 387.99 161.25 388.43 169.26 352.91 201.12 352.57 200.86 373.43 208.72 373.63 Z" id="county-solano" data-county="Solano"/>
<path d="M 114.22 317.93 128.8 336.54 148.54 380.6 147.87 387.53 145.47 387.41 144.68 387.97 144.66 387.96 145.3 389.21 137.75 392.28 98.41 372.69 58.63 324.21 114.22 317.93 Z" id="county-sonoma" data-county="Sonoma"/>
<path d="M 420.68 798.99 445.82 774.2 430.6 738.24 424.6 723.75 518.61 719.95 524.46 719.88 516.13 806.48 517 807.2 490.15 827.54 490 827.65 489.94 827.71 453.69 799.23 420.68 798.99 Z" id="county-los-angeles" data-county="Los Angeles"/>
<path d="M 329.09 487.3 331.98 484.46 352.25 463.9 361.01 463.8 366.3 449.59 385.03 430.58 387.85 427.78 387.88 427.85 391.03 431.62 410.64 446.73 402.2 455.36 389.91 467.91 347.48 520.56 303.82 526.83 296.99 519.04 297.49 514.23 294.85 508.26 292.48 504.27 289.97 502.6 290.64 501.38 290.28 500.92 295.48 495.78 329.09 487.3 Z" id="county-madera" data-county="Madera"/>
<path d="M 98.41 372.69 137.75 392.28 103.18 398.79 98.41 372.69 Z" id="county-marin" data-county="Marin"/>
<path d="M 302.78 442.32 302.81 442.31 302.78 442.29 303.77 440.45 302.88 437.2 305.93 438.56 306.16 433.14 331.27 424.6 370.06 415.44 387.83 427.74 387.85 427.78 385.03 430.58 366.3 449.59 361.01 463.8 352.25 463.9 331.98 484.46 328.92 486.88 319.23 479.32 311.26 459.83 308.47 455.29 307.89 452.97 302.78 442.32 Z" id="county-mariposa" data-county="Mariposa"/>
<path d="M 114.22 317.93 58.63 324.21 25.81 200.04 45.4 200.76 49.96 200.98 62.38 201.44 62.28 203.92 84.63 204.68 108.97 205.4 108.87 205.49 108.09 223.3 108.13 223.3 111.64 242.07 111.4 246.61 93.87 295.19 114.22 317.93 Z" id="county-mendocino" data-county="Mendocino"/>
<path d="M 302.37 442.53 302.78 442.32 307.89 452.97 308.47 455.29 311.26 459.83 319.23 479.32 328.92 486.88 329.09 487.3 295.48 495.78 289.27 501.91 259.98 530.97 259.76 530.74 236.63 508.71 236.56 508.71 236.03 491.58 235.88 491.42 302.37 442.53 Z" id="county-merced" data-county="Merced"/>
<path d="M 333.4 88.9 276.92 88.67 257.64 88.46 236.48 88.26 224.56 88.12 224.93 63.72 224.77 63.68 225.28 29.19 224.93 11.94 225.72 7.23 333.45 8.35 333.4 88.9 Z" id="county-modoc" data-county="Modoc"/>
<path d="M 367.61 556.3 368.14 555.75 414.69 530.77 464.37 529.76 464.68 530.01 494.53 624.35 370.76 625.91 367.61 556.3 Z" id="county-tulare" data-county="Tulare"/>
<path d="M 781.11 847.61 777.3 918.9 661.26 934.46 659.72 854.32 661.84 854.22 781.11 847.61 Z" id="county-imperial" data-county="Imperial"/>
<path d="M 207.3 514.46 202.4 514.83 202.25 514.9 189.03 518.89 151.08 492.58 149.3 484.6 162.46 482.07 162.66 475.04 162.67 475.09 207.3 514.46 Z" id="county-santa-cruz" data-county="Santa Cruz"/>
<path d="M 215.85 87.94 220.45 88.1 233.19 88.21 233.07 96.71 233.04 103.1 232.91 113 233.58 117.57 232.46 161.67 231.72 161.64 219.56 161.45 141.73 164.97 131.56 171.2 124.25 167.27 111.04 172.76 106.74 171.77 101.8 173.99 100.57 174.54 99.91 174.36 99.99 174.2 126.8 146.49 145.44 86.62 145.44 86.56 215.85 87.94 Z" id="county-shasta" data-county="Shasta"/>
<path d="M 301.8 441.32 302.81 442.31 302.37 442.53 235.88 491.42 235.52 491.04 216.87 456.54 216.93 456.58 260.79 431.57 260.67 397.8 261.26 398.46 281.79 422.3 289.02 429.05 301.8 441.32 Z" id="county-stanislaus" data-county="Stanislaus"/>
<path d="M 186.08 274.53 188.3 274.59 207.94 275.71 207.97 275.87 223.69 305.8 219.36 312.75 219.06 330.12 217.92 330.12 217.9 331.79 217.18 331.72 208.68 331.52 208.7 331.41 190.95 312.4 186.08 274.53 Z" id="county-sutter" data-county="Sutter"/>
<path d="M 219.56 161.45 223.73 190.75 176.31 224.85 176.45 225.15 150.55 224.41 142.58 224.16 110.12 223.33 108.09 223.3 108.87 205.49 108.98 205.31 99.86 174.49 99.91 174.36 100.57 174.54 101.8 173.99 106.74 171.77 111.04 172.76 124.25 167.27 131.56 171.2 141.73 164.97 219.56 161.45 Z" id="county-tehama" data-county="Tehama"/>
<path d="M 77 84.69 77.05 84.68 145.4 86.36 145.44 86.62 126.8 146.49 99.99 174.2 99.86 174.49 108.98 205.31 108.97 205.4 84.63 204.68 62.28 203.92 63.32 177.53 63.31 176.78 64.25 151.92 77 84.69 Z" id="county-trinity" data-county="Trinity"/>
<path d="M 317.68 626.02 323.91 626.07 370.76 625.91 494.53 624.35 524.85 622.84 527.35 719.83 518.61 719.95 424.6 723.75 425.06 724.86 417.25 724.95 417.22 722.8 395.36 722.81 382.33 714.25 376.54 714.29 376.44 696.81 317.67 643.42 317.7 634.17 317.68 626.02 Z" id="county-kern" data-county="Kern"/>
<path d="M 135.97 432.33 144.61 432.54 164.11 458.26 162.1 474.28 162.66 475.04 162.46 482.07 149.3 484.6 151.08 492.58 135.97 432.33 Z" id="county-san-mateo" data-county="San Mateo"/>
<path d="M 375.1 714.29 379.03 714.26 379.11 727.8 379.2 729.78 379.29 758.62 376.51 766.79 294.65 759.04 280.32 706.92 325.01 693.41 375.1 714.29 Z" id="county-santa-barbara" data-county="Santa Barbara"/>
<path d="M 162.67 475.09 162.1 474.28 164.11 458.26 180.99 458.66 216.85 456.52 216.87 456.54 235.52 491.04 236.03 491.58 236.56 508.71 226.24 508.64 207.3 514.46 162.67 475.09 Z" id="county-santa-clara" data-county="Santa Clara"/>
<path d="M 376.51 766.79 379.29 758.62 379.2 729.78 379.11 727.8 379.03 714.26 382.33 714.25 395.36 722.81 417.22 722.8 417.25 724.95 425.06 724.86 430.6 738.24 445.82 774.2 420.68 798.99 376.51 766.79 Z" id="county-ventura" data-county="Ventura"/>
<path d="M 169.26 352.91 147.5 317.57 147.59 317.18 151.79 311.57 190.95 312.4 208.7 331.41 208.62 331.75 208.8 373.54 208.72 373.63 200.86 373.43 201.12 352.57 169.26 352.91 Z" id="county-yolo" data-county="Yolo"/>
<path d="M 234.24 302.15 234.04 302.08 223.69 305.8 207.97 275.87 208.01 275.75 250.59 246.32 255.81 242.17 254.57 266.85 254.48 266.97 235.53 278.56 234.5 282.64 234.34 293.49 234.24 302.15 Z" id="county-yuba" data-county="Yuba"/>
<path d="M 276.92 88.67 333.4 88.9 333.31 234.33 322.09 235.79 289.45 178.15 233.94 161.71 232.46 161.67 233.58 117.57 232.91 113 233.04 103.1 233.07 96.71 233.19 88.21 236.48 88.26 257.64 88.46 276.92 88.67 Z" id="county-lassen" data-county="Lassen"/>
<path d="M 370.76 625.91 323.91 626.07 316.08 626.01 315.75 623.52 315.55 622.99 312.43 620.45 313.73 617.2 307.94 614.25 362.58 561.04 367.61 556.3 370.76 625.91 Z" id="county-kings" data-county="Kings"/>
<path d="M 361.55 373.42 361.63 373.23 365.66 334.75 504.9 457.2 430.34 458.72 430.31 458.63 410.64 446.73 391.03 431.62 361.55 373.42 Z" id="county-mono" data-county="Mono"/>
<path d="M 189.03 518.89 202.25 514.9 202.43 515.93 249.77 572.34 265.81 577.17 272.13 584.55 276.57 584.56 275.67 579.01 273.39 573.93 276.51 576.39 276.97 576.35 278.3 577.87 278.44 577.81 278.83 578.24 278.75 578.24 278.56 579.86 282.94 584.65 281.12 594.12 307.94 614.25 313.73 617.2 312.43 620.45 315.55 622.99 315.75 623.52 316.08 626.01 313.17 625.99 224.36 624.66 177.41 554.59 189.03 518.89 Z" id="county-monterey" data-county="Monterey"/>
<path d="M 128.8 336.54 147.38 317.43 147.5 317.57 169.26 352.91 161.25 388.43 144.94 387.99 144.68 387.97 145.47 387.41 147.87 387.53 148.54 380.6 128.8 336.54 Z" id="county-napa" data-county="Napa"/>
<path d="M 333.1 261.94 332.9 274.74 283.54 274.71 234.44 302.16 234.24 302.15 234.34 293.49 234.5 282.64 235.53 278.56 254.48 266.97 254.75 266.68 282.89 253.7 333.1 261.94 Z" id="county-nevada" data-county="Nevada"/>
<path d="M 517 807.2 519.92 809.57 525.98 814.21 526.15 814.7 540.79 850.07 540.82 850.97 533.92 862.44 490.15 827.54 517 807.2 Z" id="county-orange" data-county="Orange"/>
<path d="M 332.9 274.74 333.2 299.54 274.64 305.26 244.59 334.41 243.74 334.45 223.6 332.34 217.9 331.79 217.92 330.12 219.06 330.12 219.36 312.75 223.69 305.8 234.04 302.08 234.44 302.16 283.54 274.71 332.9 274.74 Z" id="county-placer" data-county="Placer"/>
<path d="M 223.73 190.75 219.56 161.45 231.72 161.64 233.94 161.71 289.45 178.15 322.09 235.79 255.81 242.17 250.59 246.32 223.73 190.75 Z" id="county-plumas" data-county="Plumas"/>
<path d="M 526.25 814.49 535.41 798.09 720.79 791.05 793.3 782.59 781.11 847.61 661.84 854.22 657.8 854.4 563.35 857.06 552.4 851.6 552.92 850.15 540.8 850.47 540.79 850.07 526.15 814.7 526.25 814.49 Z" id="county-riverside" data-county="Riverside"/>
<path d="M 253.01 375.52 210.19 395.2 199.5 393.53 208.48 373.8 208.8 373.54 208.62 331.75 208.68 331.52 217.18 331.72 223.6 332.34 243.74 334.45 244.65 334.44 252.89 353.87 253.2 355.27 253.01 375.52 Z" id="county-sacramento" data-county="Sacramento"/>
<path d="M 202.43 515.93 202.4 514.83 207.3 514.46 226.24 508.64 236.63 508.71 259.76 530.74 261.31 532.37 278.86 578.22 278.83 578.24 278.44 577.81 278.3 577.87 276.97 576.35 276.51 576.39 273.39 573.93 275.67 579.01 276.57 584.56 272.13 584.55 265.81 577.17 249.77 572.34 202.43 515.93 Z" id="county-san-benito" data-county="San Benito"/>
<path d="M 524.46 719.88 527.35 719.83 524.85 622.84 685.24 615.97 771.76 691.98 799 745.23 793.3 782.59 720.79 791.05 535.41 798.09 526.25 814.49 525.98 814.21 519.92 809.57 516.13 806.48 524.46 719.88 Z" id="county-san-bernardino" data-county="San Bernardino"/>
<path d="M 210.75 423.06 209.06 406.24 210.19 395.2 253.01 375.52 255.4 383 259.7 396.7 260.67 397.8 260.79 431.57 216.93 456.58 210.75 423.06 Z" id="county-san-joaquin" data-county="San Joaquin"/>
<path d="M 224.36 624.66 313.17 625.99 317.68 626.02 317.7 634.17 317.67 643.42 376.44 696.81 376.54 714.29 375.1 714.29 325.01 693.41 280.32 706.92 224.36 624.66 Z" id="county-san-luis-obispo" data-county="San Luis Obispo"/>
</g>
</svg>