<?xml version="1.0"?>
<svg role="img" aria-label="California county map colored by Medi-Cal participation rate" xmlns="http://www.w3.org/2000/svg" version="1.2" baseProfile="tiny" width="800" height="949" viewBox="0 0 800 949" stroke-linecap="round" stroke-linejoin="round">
<g id="ca-counties">
<path d="M 259.08 382.53 256.67 375.02 256.87 354.22 331.7 335.21 331.68 354.5 259.08 382.53 Z" id="county-amador" data-county="Amador"/>
<path d="M 111.25 222.22 179.83 224.08 191.05 265.67 125.34 264.13 114.61 244.13 111.25 222.22 Z" id="county-glenn" data-county="Glenn"/>
<path d="M 131.99 335.9 117.36 317.21 114.61 244.13 125.34 264.13 155.07 310.82 150.65 316.71 131.99 335.9 Z" id="county-lake" data-county="Lake"/>
<path d="M 306.63 442.07 306.64 442.04 392.03 427.48 333.21 487.15 306.63 442.07 Z" id="county-mariposa" data-county="Mariposa"/>
<path d="M 172.61 352.33 147.94 387.51 131.99 335.9 150.65 316.71 172.61 352.33 Z" id="county-napa" data-county="Napa"/>
<path d="M 103 173.1 148.7 84.97 228.12 86.54 236.78 86.62 236.05 160.36 223.1 160.14 103 173.1 Z" id="county-shasta" data-county="Shasta"/>
<path d="M 239.48 491.35 220.4 456.35 220.46 456.39 264.36 397.38 285.76 422.16 306.64 442.04 306.63 442.07 239.48 491.35 Z" id="county-stanislaus" data-county="Stanislaus"/>
<path d="M 254.25 245.33 259.48 241.17 258.24 265.94 237.83 301.37 227.25 305.04 211.51 274.87 254.25 245.33 Z" id="county-yuba" data-county="Yuba"/>
<path d="M 331.7 335.21 344.81 312.16 369.75 334.1 365.69 372.74 335.79 362.13 331.68 354.5 331.7 335.21 Z" id="county-alpine" data-county="Alpine"/>
<path d="M 254.25 245.33 211.51 274.87 189.47 273.64 191.05 265.67 179.83 224.08 227.29 189.55 254.25 245.33 Z" id="county-butte" data-county="Butte"/>
<path d="M 117.36 317.21 61.57 323.51 28.55 198.88 65.33 200.28 112.09 204.26 111.25 222.22 114.61 244.13 117.36 317.21 Z" id="county-mendocino" data-county="Mendocino"/>
<path d="M 229.28 5.37 337.42 6.46 337.37 87.32 236.78 86.62 228.12 86.54 229.28 5.37 Z" id="county-modoc" data-county="Modoc"/>
<path d="M 509.52 457.01 434.67 458.54 414.9 446.5 395.22 431.33 365.69 372.74 369.75 334.1 509.52 457.01 Z" id="county-mono" data-county="Mono"/>
<path d="M 237.83 301.37 258.24 265.94 337.12 261.02 336.95 273.87 237.83 301.37 Z" id="county-nevada" data-county="Nevada"/>
<path d="M 521.66 808.32 530.95 815.64 545.55 851.77 538.65 863.75 494.34 829.15 521.66 808.32 Z" id="county-orange" data-county="Orange"/>
<path d="M 799 783.63 786.76 848.89 664.92 855.62 545.55 851.77 530.95 815.64 540.14 799.18 799 783.63 Z" id="county-riverside" data-county="Riverside"/>
<path d="M 210.8 514.49 240.16 508.71 263.67 531.06 282.6 578.5 205.78 514.92 210.8 514.49 Z" id="county-san-benito" data-county="San Benito"/>
<path d="M 666.47 936.1 580.65 947.55 538.65 863.75 545.55 851.77 664.92 855.62 666.47 936.1 Z" id="county-san-diego" data-county="San Diego"/>
<path d="M 139.23 432.05 138.47 424.76 147.01 421.92 148.02 432.25 139.23 432.05 Z" id="county-san-francisco" data-county="San Francisco"/>
<path d="M 212.22 373.12 172.61 352.33 150.65 316.71 155.07 310.82 194.38 311.67 212.18 330.85 212.22 373.12 Z" id="county-yolo" data-county="Yolo"/>
<path d="M 154.36 492.52 139.23 432.05 148.02 432.25 169.36 453.06 172.05 455.87 165.99 474.92 154.36 492.52 Z" id="county-san-mateo" data-county="San Mateo"/>
<path d="M 380.67 715.06 383.17 715.04 380.5 767.37 284.1 746.97 284.11 707.69 380.67 715.06 Z" id="county-santa-barbara" data-county="Santa Barbara"/>
<path d="M 210.8 514.49 205.78 514.92 192.36 519.01 154.36 492.52 165.99 474.92 210.8 514.49 Z" id="county-santa-cruz" data-county="Santa Cruz"/>
<path d="M 172.61 352.33 212.22 373.12 190.59 397.44 158.73 397.34 148.18 388.02 147.94 387.51 172.61 352.33 Z" id="county-solano" data-county="Solano"/>
<path d="M 221.43 331.13 212.18 330.85 194.38 311.67 189.47 273.64 211.51 274.87 227.25 305.04 221.43 331.13 Z" id="county-sutter" data-county="Sutter"/>
<path d="M 112.09 204.26 103 173.1 223.1 160.14 227.29 189.55 179.83 224.08 111.25 222.22 112.09 204.26 Z" id="county-tehama" data-county="Tehama"/>
<path d="M 285.76 422.16 335.79 362.13 365.69 372.74 395.22 431.33 392.03 427.48 306.64 442.04 285.76 422.16 Z" id="county-tuolumne" data-county="Tuolumne"/>
<path d="M 285.76 422.16 264.36 397.38 259.08 382.53 331.68 354.5 335.79 362.13 285.76 422.16 Z" id="county-calaveras" data-county="Calaveras"/>
<path d="M 154.65 413.53 158.73 397.34 190.59 397.44 212.9 395 214.26 422.74 154.65 413.53 Z" id="county-contra-costa" data-county="Contra Costa"/>
<path d="M 31.62 52.75 74.75 1 61.68 62.23 31.62 52.75 Z" id="county-del-norte" data-county="Del Norte"/>
<path d="M 664.92 855.62 786.76 848.89 791.7 918.89 666.47 936.1 664.92 855.62 Z" id="county-imperial" data-county="Imperial"/>
<path d="M 529.15 720.68 429.38 725.68 383.17 715.04 380.67 715.06 321.59 626.46 374.87 626.35 499.11 624.79 529.54 623.28 529.15 720.68 Z" id="county-kern" data-county="Kern"/>
<path d="M 371.7 556.48 374.87 626.35 321.59 626.46 319.98 626.45 311.81 614.65 371.7 556.48 Z" id="county-kings" data-county="Kings"/>
<path d="M 294.09 500.89 333.21 487.15 392.03 427.48 395.22 431.33 414.9 446.5 351.5 520.61 294.09 500.89 Z" id="county-madera" data-county="Madera"/>
<path d="M 189.47 273.64 194.38 311.67 155.07 310.82 125.34 264.13 191.05 265.67 189.47 273.64 Z" id="county-colusa" data-county="Colusa"/>
<path d="M 509.52 457.01 690.56 616.33 529.54 623.28 499.11 624.79 468.83 529.84 434.67 458.54 509.52 457.01 Z" id="county-inyo" data-county="Inyo"/>
<path d="M 306.63 442.07 333.21 487.15 294.09 500.89 263.67 531.06 240.16 508.71 239.48 491.35 306.63 442.07 Z" id="county-merced" data-county="Merced"/>
<path d="M 254.25 245.33 227.29 189.55 223.1 160.14 236.05 160.36 321.28 196.95 326.02 234.76 259.48 241.17 254.25 245.33 Z" id="county-plumas" data-county="Plumas"/>
<path d="M 264.36 397.38 220.46 456.39 214.26 422.74 212.9 395 256.67 375.02 259.08 382.53 264.36 397.38 Z" id="county-san-joaquin" data-county="San Joaquin"/>
<path d="M 337.26 233.3 337.12 261.02 258.24 265.94 259.48 241.17 326.02 234.76 337.26 233.3 Z" id="county-sierra" data-county="Sierra"/>
<path d="M 374.87 626.35 371.7 556.48 468.83 529.84 499.11 624.79 374.87 626.35 Z" id="county-tulare" data-county="Tulare"/>
<path d="M 141.21 391.93 105.62 398.7 101.48 372.18 141.21 391.93 Z" id="county-marin" data-county="Marin"/>
<path d="M 319.98 626.45 228.04 625.11 192.36 519.01 205.78 514.92 282.6 578.5 311.81 614.65 319.98 626.45 Z" id="county-monterey" data-county="Monterey"/>
<path d="M 336.95 273.87 337.17 298.76 248.22 333.76 221.43 331.13 227.25 305.04 237.83 301.37 336.95 273.87 Z" id="county-placer" data-county="Placer"/>
<path d="M 371.7 556.48 311.81 614.65 282.6 578.5 263.67 531.06 294.09 500.89 351.5 520.61 414.9 446.5 434.67 458.54 468.83 529.84 371.7 556.48 Z" id="county-fresno" data-county="Fresno"/>
<path d="M 65.33 200.28 28.55 198.88 1 153.97 31.62 52.75 61.68 62.23 80 83.1 65.33 200.28 Z" id="county-humboldt" data-county="Humboldt"/>
<path d="M 337.26 233.3 326.02 234.76 321.28 196.95 236.05 160.36 236.78 86.62 337.37 87.32 337.26 233.3 Z" id="county-lassen" data-county="Lassen"/>
<path d="M 429.38 725.68 529.15 720.68 521.66 808.32 494.34 829.15 424.98 800.12 429.38 725.68 Z" id="county-los-angeles" data-county="Los Angeles"/>
<path d="M 248.22 333.76 256.87 354.22 256.67 375.02 212.9 395 190.59 397.44 212.22 373.12 212.18 330.85 221.43 331.13 248.22 333.76 Z" id="county-sacramento" data-county="Sacramento"/>
<path d="M 690.56 616.33 777.42 692.65 799 783.63 540.14 799.18 530.95 815.64 521.66 808.32 529.15 720.68 529.54 623.28 690.56 616.33 Z" id="county-san-bernardino" data-county="San Bernardino"/>
<path d="M 429.38 725.68 424.98 800.12 380.5 767.37 383.17 715.04 429.38 725.68 Z" id="county-ventura" data-county="Ventura"/>
<path d="M 172.05 455.87 169.36 453.06 154.65 413.53 214.26 422.74 220.46 456.39 220.4 456.35 172.05 455.87 Z" id="county-alameda" data-county="Alameda"/>
<path d="M 321.59 626.46 380.67 715.06 284.11 707.69 228.04 625.11 319.98 626.45 321.59 626.46 Z" id="county-san-luis-obispo" data-county="San Luis Obispo"/>
<path d="M 229.28 5.37 228.12 86.54 148.7 84.97 80 83.1 61.68 62.23 74.75 1 229.28 5.37 Z" id="county-siskiyou" data-county="Siskiyou"/>
<path d="M 117.36 317.21 131.99 335.9 147.94 387.51 148.18 388.02 141.21 391.93 101.48 372.18 61.57 323.51 117.36 317.21 Z" id="county-sonoma" data-county="Sonoma"/>
<path d="M 103 173.1 112.09 204.26 65.33 200.28 80 83.1 148.7 84.97 103 173.1 Z" id="county-trinity" data-county="Trinity"/>
<path d="M 248.22 333.76 337.17 298.76 344.81 312.16 331.7 335.21 256.87 354.22 248.22 333.76 Z" id="county-el-dorado" data-county="El Dorado"/>
<path d="M 165.99 474.92 172.05 455.87 220.4 456.35 239.48 491.35 240.16 508.71 210.8 514.49 165.99 474.92 Z" id="county-santa-clara" data-county="Santa Clara"/>
</g>
</svg>